<svg width="46" height="46" viewBox="0 0 46 46" fill="none" xmlns="http://www.w3.org/2000/svg">
<path d="M13.225 1.7037C13.225 1.25185 13.0433 0.81851 12.7198 0.499003C12.3963 0.179497 11.9575 0 11.5 0C11.0425 0 10.6037 0.179497 10.2802 0.499003C9.95674 0.81851 9.775 1.25185 9.775 1.7037V5.29284C6.463 5.55407 4.2918 6.19467 2.6956 7.77343C1.0971 9.34993 0.4485 11.4966 0.1817 14.7654H45.8183C45.5515 11.4943 44.9029 9.34993 43.3044 7.77343C41.7082 6.19467 39.5347 5.55407 36.225 5.29057V1.7037C36.225 1.25185 36.0433 0.81851 35.7198 0.499003C35.3963 0.179497 34.9575 0 34.5 0C34.0425 0 33.6037 0.179497 33.2802 0.499003C32.9567 0.81851 32.775 1.25185 32.775 1.7037V5.14064C31.2455 5.11111 29.5297 5.11111 27.6 5.11111H18.4C16.4703 5.11111 14.7545 5.11111 13.225 5.14064V1.7037Z" fill="#FFAC46"/>
<path fill-rule="evenodd" clip-rule="evenodd" d="M0 23.284C0 21.3781 2.57045e-08 19.6835 0.0299 18.1728H45.9701C46 19.6835 46 21.3781 46 23.284V27.8272C46 36.3934 46 40.6776 43.3044 43.3377C40.6088 45.9977 36.2733 46 27.6 46H18.4C9.7267 46 5.3889 46 2.6956 43.3377C0.00229983 40.6754 0 36.3934 0 27.8272V23.284ZM34.5 27.8272C35.11 27.8272 35.695 27.5878 36.1263 27.1618C36.5577 26.7358 36.8 26.158 36.8 25.5556C36.8 24.9531 36.5577 24.3753 36.1263 23.9493C35.695 23.5233 35.11 23.284 34.5 23.284C33.89 23.284 33.305 23.5233 32.8737 23.9493C32.4423 24.3753 32.2 24.9531 32.2 25.5556C32.2 26.158 32.4423 26.7358 32.8737 27.1618C33.305 27.5878 33.89 27.8272 34.5 27.8272ZM34.5 36.9136C35.11 36.9136 35.695 36.6743 36.1263 36.2482C36.5577 35.8222 36.8 35.2444 36.8 34.642C36.8 34.0395 36.5577 33.4617 36.1263 33.0357C35.695 32.6097 35.11 32.3704 34.5 32.3704C33.89 32.3704 33.305 32.6097 32.8737 33.0357C32.4423 33.4617 32.2 34.0395 32.2 34.642C32.2 35.2444 32.4423 35.8222 32.8737 36.2482C33.305 36.6743 33.89 36.9136 34.5 36.9136ZM25.3 25.5556C25.3 26.158 25.0577 26.7358 24.6263 27.1618C24.195 27.5878 23.61 27.8272 23 27.8272C22.39 27.8272 21.805 27.5878 21.3737 27.1618C20.9423 26.7358 20.7 26.158 20.7 25.5556C20.7 24.9531 20.9423 24.3753 21.3737 23.9493C21.805 23.5233 22.39 23.284 23 23.284C23.61 23.284 24.195 23.5233 24.6263 23.9493C25.0577 24.3753 25.3 24.9531 25.3 25.5556ZM25.3 34.642C25.3 35.2444 25.0577 35.8222 24.6263 36.2482C24.195 36.6743 23.61 36.9136 23 36.9136C22.39 36.9136 21.805 36.6743 21.3737 36.2482C20.9423 35.8222 20.7 35.2444 20.7 34.642C20.7 34.0395 20.9423 33.4617 21.3737 33.0357C21.805 32.6097 22.39 32.3704 23 32.3704C23.61 32.3704 24.195 32.6097 24.6263 33.0357C25.0577 33.4617 25.3 34.0395 25.3 34.642ZM11.5 27.8272C12.11 27.8272 12.695 27.5878 13.1263 27.1618C13.5577 26.7358 13.8 26.158 13.8 25.5556C13.8 24.9531 13.5577 24.3753 13.1263 23.9493C12.695 23.5233 12.11 23.284 11.5 23.284C10.89 23.284 10.305 23.5233 9.87365 23.9493C9.44232 24.3753 9.2 24.9531 9.2 25.5556C9.2 26.158 9.44232 26.7358 9.87365 27.1618C10.305 27.5878 10.89 27.8272 11.5 27.8272ZM11.5 36.9136C12.11 36.9136 12.695 36.6743 13.1263 36.2482C13.5577 35.8222 13.8 35.2444 13.8 34.642C13.8 34.0395 13.5577 33.4617 13.1263 33.0357C12.695 32.6097 12.11 32.3704 11.5 32.3704C10.89 32.3704 10.305 32.6097 9.87365 33.0357C9.44232 33.4617 9.2 34.0395 9.2 34.642C9.2 35.2444 9.44232 35.8222 9.87365 36.2482C10.305 36.6743 10.89 36.9136 11.5 36.9136Z" fill="#FFAC46"/>
</svg>
