<svg width="39" height="39" viewBox="0 0 39 39" fill="none" xmlns="http://www.w3.org/2000/svg">
<path d="M2 32.625H0H2ZM10.75 23.875V21.875V23.875ZM28.25 23.875V21.875V23.875ZM4 32.625C4 30.8348 4.71116 29.1179 5.97703 27.852L3.1486 25.0236C1.13259 27.0396 0 29.7739 0 32.625H4ZM5.97703 27.852C7.2429 26.5862 8.95979 25.875 10.75 25.875V21.875C7.89892 21.875 5.16462 23.0076 3.1486 25.0236L5.97703 27.852ZM10.75 25.875H28.25V21.875H10.75V25.875ZM28.25 25.875C30.0402 25.875 31.7571 26.5862 33.023 27.852L35.8514 25.0236C33.8354 23.0076 31.1011 21.875 28.25 21.875V25.875ZM33.023 27.852C34.2888 29.1179 35 30.8348 35 32.625H39C39 29.7739 37.8674 27.0396 35.8514 25.0236L33.023 27.852ZM35 32.625C35 33.2549 34.7498 33.859 34.3044 34.3044L37.1328 37.1328C38.3283 35.9373 39 34.3158 39 32.625H35ZM34.3044 34.3044C33.859 34.7498 33.2549 35 32.625 35V39C34.3158 39 35.9373 38.3283 37.1328 37.1328L34.3044 34.3044ZM32.625 35H6.375V39H32.625V35ZM6.375 35C5.74511 35 5.14102 34.7498 4.69562 34.3044L1.86719 37.1328C3.06274 38.3283 4.68424 39 6.375 39V35ZM4.69562 34.3044C4.25022 33.859 4 33.2549 4 32.625H0C0 34.3158 0.67165 35.9373 1.86719 37.1328L4.69562 34.3044ZM24.0625 8.5625C24.0625 11.0823 22.0198 13.125 19.5 13.125V17.125C24.2289 17.125 28.0625 13.2914 28.0625 8.5625H24.0625ZM19.5 13.125C16.9802 13.125 14.9375 11.0823 14.9375 8.5625H10.9375C10.9375 13.2914 14.7711 17.125 19.5 17.125V13.125ZM14.9375 8.5625C14.9375 6.0427 16.9802 4 19.5 4V0C14.7711 0 10.9375 3.83356 10.9375 8.5625H14.9375ZM19.5 4C22.0198 4 24.0625 6.0427 24.0625 8.5625H28.0625C28.0625 3.83356 24.2289 0 19.5 0V4Z" fill="white"/>
</svg>
